Coordinates
version=1
nRows=29
nColumns=24
inDegrees=yes

Units are S.I. units (second, meters, Newtons, ...)
Angles are in degrees.

endheader
time	pelvis_tilt	pelvis_list	pelvis_rotation	pelvis_tx	pelvis_ty	pelvis_tz	hip_flexion_r	hip_adduction_r	hip_rotation_r	knee_angle_r	ankle_angle_r	subtalar_angle_r	mtp_angle_r	hip_flexion_l	hip_adduction_l	hip_rotation_l	knee_angle_l	ankle_angle_l	subtalar_angle_l	mtp_angle_l	lumbar_extension	lumbar_bending	lumbar_rotation
      3.16500000	     -9.37724951	     -3.22082501	      5.62324684	     -1.92644285	     -0.04805139	     -0.32714152	     38.79910959	      1.33221477	     -8.51641466	    -16.54819749	      0.83663184	      8.92257918	     13.28319188	     -4.86894097	     -1.07522428	      7.37914627	    -20.13661515	     24.37210979	     21.41168667	    -13.01373356	     10.28180440	     -2.24115038	    -16.45793840
      3.17000000	     -9.43845346	     -3.61491873	      5.75458366	     -1.91907815	     -0.04905692	     -0.32711633	     38.88941368	      1.69684743	     -8.46214451	    -17.20356282	      0.29678095	      8.54432855	     13.00378311	     -4.74465151	     -1.67169409	      6.87867438	    -21.14435888	     24.31224648	     22.61639987	    -12.54454585	     10.51378821	     -1.74274121	    -16.60466759
      3.17500000	     -9.48726865	     -4.03461654	      5.82192542	     -1.91162137	     -0.04999432	     -0.32700349	     38.97933536	      2.12003652	     -8.42702239	    -17.91559262	     -0.38054906	      8.04911489	     12.83565279	     -4.63001496	     -2.31008410	      6.30321292	    -22.15608212	     24.12717196	     23.81812399	    -11.92559380	     10.74851548	     -1.19823241	    -16.67532652
      3.18000000	     -9.53077288	     -4.45059443	      5.83043868	     -1.90414658	     -0.05087208	     -0.32678431	     39.08908977	      2.57068469	     -8.39389240	    -18.70374957	     -1.12307984	      7.46576393	     12.68121436	     -4.50499985	     -2.96429633	      5.64333465	    -23.18328434	     23.78117511	     25.07382897	    -11.00793462	     10.97616156	     -0.64221301	    -16.64503769
      3.18500000	     -9.64272594	     -4.94357261	      5.92406779	     -1.89663712	     -0.05166328	     -0.32674601	     39.26333960	      2.99030127	     -8.59307811	    -19.50978632	     -1.88934803	      6.99691710	     12.47849020	     -4.23373697	     -3.69557362	      5.10224213	    -24.30085544	     23.32749213	     26.23977618	    -10.17392412	     11.29498079	     -0.02280939	    -16.78561472
      3.19000000	     -9.65059077	     -5.33184662	      5.74280395	     -1.88907335	     -0.05227235	     -0.32622251	     39.35626780	      3.55008374	     -8.38978861	    -20.39647186	     -2.69911529	      6.14077743	     11.94266234	     -4.17502099	     -4.35420751	      4.23128582	    -25.19698241	     22.22268233	     27.41754333	     -7.63241197	     11.47629978	      0.54356372	    -16.58503836
      3.19500000	     -9.76735518	     -5.73769014	      5.73262004	     -1.88166274	     -0.05289215	     -0.32591397	     39.58905488	      3.93703464	     -8.58216238	    -21.35118293	     -3.35832864	      5.65097711	     11.48948374	     -3.83111539	     -5.06016955	      3.42524930	    -26.36999501	     21.30107276	     28.84174800	     -5.98906450	     11.75886361	      1.07320373	    -16.59788248
      3.20000000	     -9.84001267	     -6.16660344	      5.65670799	     -1.87420693	     -0.05336056	     -0.32548975	     39.75887621	      4.40899184	     -8.65816947	    -22.30041211	     -3.96569299	      5.00781913	     10.73222003	     -3.54316002	     -5.80206489	      2.62806511	    -27.48322382	     20.05609951	     30.15902384	     -3.70777492	     11.99023735	      1.64322830	    -16.58244081
      3.20500000	     -9.93160972	     -6.61076204	      5.59453430	     -1.86668002	     -0.05373054	     -0.32508134	     39.92041402	      4.86999573	     -8.80198051	    -23.22867887	     -4.42406112	      4.44926124	      9.86835084	     -3.19764900	     -6.56816284	      1.87833779	    -28.61044064	     18.52324005	     31.38814182	     -1.05815956	     12.25141612	      2.22101993	    -16.59763335
      3.21000000	     -9.95880999	     -6.99459493	      5.57474015	     -1.85922869	     -0.05394528	     -0.32475559	     40.01113404	      5.21752121	     -9.07656137	    -24.19456784	     -4.60772126	      4.23060067	      9.03016684	     -2.87713190	     -7.28046610	      1.20750487	    -29.73052038	     16.65368151	     32.56755212	      2.11585360	     12.41852430	      2.73509821	    -16.66421926
      3.21500000	    -10.00891088	     -7.41672158	      5.45242672	     -1.85169383	     -0.05415038	     -0.32426166	     40.08198651	      5.67251248	     -9.26595973	    -25.06180992	     -4.81712340	      3.94691225	      8.41360794	     -2.51123839	     -8.05666253	      0.42459650	    -30.93086325	     14.77691517	     33.78699088	      4.82736036	     12.61507001	      3.30644706	    -16.62411382
      3.22000000	    -10.05597482	     -7.84347101	      5.34577487	     -1.84416495	     -0.05427940	     -0.32376765	     40.10452268	      6.11515703	     -9.49590072	    -25.84956043	     -4.92484631	      3.77574726	      7.99748251	     -2.10108498	     -8.84480274	     -0.28119710	    -32.16446381	     12.68605421	     34.92345697	      7.61371750	     12.80348263	      3.87472780	    -16.62197683
      3.22500000	    -10.07301412	     -8.24418887	      5.22209091	     -1.83666032	     -0.05434642	     -0.32320575	     40.05201826	      6.55421614	     -9.69647095	    -26.55869949	     -4.94481052	      3.68714837	      7.89122612	     -1.69330767	     -9.61796785	     -0.95058507	    -33.42669733	     10.44386515	     36.02687391	     10.29697833	     12.94649258	      4.41187681	    -16.62152578
      3.23000000	    -10.07962995	     -8.63427019	      5.10678289	     -1.82915876	     -0.05434533	     -0.32258661	     39.93436753	      6.98916760	     -9.90683290	    -27.16666883	     -4.90089375	      3.65198404	      8.09889467	     -1.25870033	    -10.38912273	     -1.54037513	    -34.71810250	      8.05021655	     37.09026130	     12.76084783	     13.07163817	      4.92279621	    -16.65330800
      3.23500000	    -10.07449353	     -9.03989355	      4.96710796	     -1.82171557	     -0.05433562	     -0.32201640	     39.77110679	      7.43464000	    -10.18369995	    -27.70395046	     -4.77214563	      3.81810142	      8.64563710	     -0.79839430	    -11.15396132	     -2.05801038	    -36.04923214	      5.53185490	     37.89609693	     15.11343688	     13.16618773	      5.47369854	    -16.62274809
      3.24000000	    -10.08497980	     -9.47847173	      4.91230530	     -1.81427683	     -0.05431638	     -0.32146075	     39.56185114	      7.87894563	    -10.48520584	    -28.12200501	     -4.53228848	      3.99989158	      9.33580963	     -0.24189563	    -11.95796403	     -2.38222539	    -37.46889000	      3.06464135	     38.73866730	     16.75272343	     13.29719925	      6.01660331	    -16.76461852
      3.24500000	    -10.03891582	     -9.80530397	      4.71929580	     -1.80697308	     -0.05421871	     -0.32081741	     39.27104021	      8.30775158	    -10.64337856	    -28.51105469	     -4.26832030	      4.35880537	     10.47184546	      0.21143228	    -12.60350356	     -2.76606162	    -38.79978166	      0.31517314	     39.16962379	     18.76139376	     13.30534652	      6.49570306	    -16.66220458
      3.25000000	    -10.02373261	    -10.16151421	      4.56420808	     -1.79969907	     -0.05413683	     -0.32018320	     38.97124828	      8.75023246	    -10.85032535	    -28.81436853	     -3.95312774	      4.65728718	     11.61280722	      0.76139789	    -13.26747937	     -3.01269165	    -40.21928828	     -2.26648777	     39.52721155	     19.92087769	     13.35757574	      6.98524035	    -16.62560736
      3.25500000	    -10.00751331	    -10.50877585	      4.42008743	     -1.79258570	     -0.05408918	     -0.31950951	     38.66182931	      9.18708144	    -11.06066305	    -29.10274101	     -3.51062813	      5.01615945	     12.61128049	      1.37655607	    -13.92034458	     -3.19450814	    -41.72963736	     -4.65819681	     39.83469727	     20.44802952	     13.38144578	      7.45176926	    -16.60240759
      3.26000000	    -10.00355199	    -10.86608075	      4.17338512	     -1.78537914	     -0.05400688	     -0.31880456	     38.31095909	      9.72364108	    -11.12151553	    -29.33324852	     -2.93266931	      5.33280874	     13.12032424	      1.97663860	    -14.54225970	     -3.40925344	    -43.25605136	     -6.82800341	     39.70979265	     20.20508501	     13.43105008	      7.97225720	    -16.42766721
      3.26500000	    -10.01705665	    -11.18774604	      4.07384152	     -1.77836825	     -0.05381120	     -0.31826821	     37.94264983	     10.11270922	    -11.36044874	    -29.41167540	     -2.70351656	      5.52754730	     14.83263925	      2.68355729	    -15.08303213	     -3.36958107	    -44.67220488	     -9.28096207	     39.41827204	     20.91377238	     13.49331304	      8.40184881	    -16.41213311
      3.27000000	    -10.01866122	    -11.54081890	      3.84778294	     -1.77140706	     -0.05366602	     -0.31753114	     37.56366513	     10.64169748	    -11.46916075	    -29.54616864	     -2.19999598	      5.78826990	     15.44447796	      3.38297758	    -15.68877997	     -3.50454320	    -46.21625180	    -11.18869922	     39.06233736	     20.50739062	     13.51704827	      8.89993423	    -16.21502867
      3.27500000	    -10.00233553	    -11.86505463	      3.64968947	     -1.76447998	     -0.05344938	     -0.31681350	     37.12352868	     11.17070357	    -11.44149090	    -29.62169163	     -1.62626838	      5.94651852	     15.86688781	      4.09319041	    -16.24195066	     -3.60341309	    -47.74097453	    -12.90844244	     38.37998615	     20.06412694	     13.52655388	      9.34742759	    -16.07552032
      3.28000000	    -10.00242247	    -12.18555673	      3.46640664	     -1.75762968	     -0.05317943	     -0.31613866	     36.68098788	     11.68065807	    -11.45784674	    -29.64945396	     -1.11132073	      6.09855847	     16.31327614	      4.86083756	    -16.77305296	     -3.65928400	    -49.25512602	    -14.39797495	     37.52816457	     19.62536558	     13.54876356	      9.78834737	    -15.91264053
      3.28500000	    -10.12111585	    -12.45027398	      3.33578719	     -1.75094997	     -0.05295275	     -0.31559747	     36.35310478	     12.06741782	    -11.54377829	    -29.59927178	     -0.85048180	      6.14865286	     17.55402208	      5.84516795	    -17.18850535	     -3.56404984	    -50.81951949	    -15.51654430	     36.50846205	     18.89390897	     13.69360567	     10.15093118	    -15.81805204
      3.29000000	    -10.07010414	    -12.74458588	      3.13807737	     -1.74412417	     -0.05249818	     -0.31487135	     35.79072223	     12.61163799	    -11.44285342	    -29.52002388	     -0.37433578	      6.12926433	     17.78582699	      6.57916067	    -17.68992939	     -3.67129809	    -52.26303513	    -16.43258544	     35.35285271	     18.56382166	     13.66146249	     10.56416829	    -15.58637729
      3.29500000	    -10.04595238	    -13.00119354	      2.97216495	     -1.73737664	     -0.05199239	     -0.31419367	     35.23815895	     13.10516015	    -11.31236301	    -29.40704698	      0.06497557	      6.08042222	     17.99040540	      7.38620969	    -18.12623240	     -3.72120512	    -53.68803923	    -17.02689310	     34.05530395	     18.26761774	     13.65342005	     10.91933097	    -15.39347206
      3.30000000	    -10.14287593	    -13.18574364	      2.81218241	     -1.73074114	     -0.05153670	     -0.31354798	     34.80259923	     13.51942721	    -11.10689615	    -29.26540205	      0.39836773	      5.87705675	     18.34510824	      8.37747787	    -18.43518967	     -3.67723309	    -55.14123268	    -17.16453598	     32.64170192	     17.59554683	     13.76717456	     11.18574386	    -15.19935490
      3.30500000	    -10.08094174	    -13.41418491	      2.66786060	     -1.72399753	     -0.05085902	     -0.31291070	     34.15162962	     13.99553806	    -10.92615395	    -29.06107896	      0.80671086	      5.80077680	     18.43452736	      9.17414650	    -18.82481049	     -3.71889715	    -56.46165656	    -17.17498145	     31.16967242	     17.49121347	     13.72600999	     11.51171543	    -14.97740138
